<?xml version="1.0" encoding="UTF-8" standalone="no"?>
<!-- Created with Inkscape (http://www.inkscape.org/) -->

<svg
   xmlns:dc="http://purl.org/dc/elements/1.1/"
   xmlns:cc="http://creativecommons.org/ns#"
   xmlns:rdf="http://www.w3.org/1999/02/22-rdf-syntax-ns#"
   xmlns:svg="http://www.w3.org/2000/svg"
   xmlns="http://www.w3.org/2000/svg"
   xmlns:sodipodi="http://sodipodi.sourceforge.net/DTD/sodipodi-0.dtd"
   xmlns:inkscape="http://www.inkscape.org/namespaces/inkscape"
   width="210mm"
   height="297mm"
   viewBox="0 0 744.09448819 1052.3622047"
   id="svg2"
   version="1.1"
   inkscape:version="0.91 r13725"
   sodipodi:docname="logo.svg">
  <defs
     id="defs4" />
  <sodipodi:namedview
     id="base"
     pagecolor="#ffffff"
     bordercolor="#666666"
     borderopacity="1.0"
     inkscape:pageopacity="0.0"
     inkscape:pageshadow="2"
     inkscape:zoom="1.0527236"
     inkscape:cx="200.93534"
     inkscape:cy="878.82688"
     inkscape:document-units="px"
     inkscape:current-layer="layer1"
     showgrid="false"
     showborder="false"
     inkscape:window-width="1920"
     inkscape:window-height="953"
     inkscape:window-x="-9"
     inkscape:window-y="-9"
     inkscape:window-maximized="1" />
  <metadata
     id="metadata7">
    <rdf:RDF>
      <cc:Work
         rdf:about="">
        <dc:format>image/svg+xml</dc:format>
        <dc:type
           rdf:resource="http://purl.org/dc/dcmitype/StillImage" />
        <dc:title></dc:title>
      </cc:Work>
    </rdf:RDF>
  </metadata>
  <g
     inkscape:label="Layer 1"
     inkscape:groupmode="layer"
     id="layer1">
    <path
       style="fill:#ff0000;fill-opacity:1;stroke:none;stroke-opacity:1;stroke-width:12.10000038;stroke-miterlimit:4;stroke-dasharray:290.40000916, 12.10000038000000100;stroke-linejoin:round;stroke-linecap:butt;stroke-dashoffset:0"
       d="M -6.0623479,295.63974 C -124.7565,164.26456 -236.78002,40.225143 -255.00347,19.996704 l -33.13369,-36.779009 84.70299,-85.325355 84.70305,-85.32545 324.28288,0 324.28292,0 91.48562,83.33366 91.48554,83.333616 L 489.06398,226.6493 C 366.00598,362.72772 252.81739,487.66337 237.53372,504.28407 l -27.78843,30.21969 z M 438.51065,218.22424 654.88175,-13.906501 592.23776,-74.589199 529.59377,-135.272 l -313.20988,0 -313.209836,0 -64.627974,57.659892 c -35.54544,31.712965 -65.3197,59.324819 -66.165,61.359739 -0.8454,2.034921 11.21096,17.16481405 26.79182,33.622037 15.58086,16.457172 101.270144,106.635022 190.420522,200.395292 89.150429,93.76001 175.338028,184.83553 191.528048,202.3897 16.19002,17.55427 32.04219,31.53064 35.22724,31.05857 3.18491,-0.47238 103.15776,-105.31714 222.16194,-232.98899 z M 132.94353,302.628 c -1.76315,-1.70411 1.28255,-10.11756 6.76819,-18.69655 l 9.97389,-15.59811 -14.94499,-30.89591 c -24.04433,-49.70701 -19.05197,-73.96857 15.22082,-73.96857 19.14187,0 19.90399,-0.5646 17.59488,-13.04024 C 164.46677,133.7368 143.13882,85.758385 137.81543,83.524809 128.12646,79.45959 105.07741,54.09081 105.07741,47.49185 c 0,-3.977881 -4.5454,-9.917875 -10.100818,-13.200078 C 89.421072,31.00957 78.074872,16.054405 69.76267,1.0582146 53.263395,-28.708914 42.994061,-33.420777 38.758272,-13.167538 30.772678,25.014585 32.91568,23.450348 -13.456032,24.944756 l -42.279177,1.362398 -5.4498,-15.110331 c -2.997389,-8.3106613 -5.44985,-20.1265183 -5.44985,-26.257517 0,-9.224506 -2.53867,-11.147134 -14.718155,-11.147134 -8.095062,0 -14.718206,-2.133915 -14.718206,-4.741952 0,-2.608038 6.623144,-4.741901 14.718206,-4.741901 13.425227,0 14.718155,-1.395875 14.718155,-15.889137 0,-8.739036 2.452461,-22.688756 5.44985,-30.999418 l 5.4498,-15.110279 42.384332,1.362398 42.384333,1.36245 7.063379,29.954795 c 6.332786,26.856461 9.361239,23.576826 18.423649,20.753651 5.559216,-1.731828 18.428732,2.130269 22.476237,2.664929 4.047454,0.534454 58.498359,3.092532 128.655059,4.204981 93.27875,1.479004 130.51288,0.49497 138.55444,-3.662466 8.55055,-4.420376 13.87548,-4.417244 23.93779,0.01027 7.11765,3.134482 14.08219,4.596131 15.47688,3.248161 1.39459,-1.348074 4.3202,-13.361764 6.5012,-26.697034 5.61924,-34.357919 9.77113,-37.594219 48.23093,-37.594219 41.9785,0 49.3365,5.249758 53.49265,38.165436 3.00016,23.760386 4.35486,25.97178 16.75569,27.350969 18.21211,2.02537 17.22551,10.35431 -1.22648,10.35431 -13.01031,0 -14.71821,1.614967 -14.71821,13.917064 0,7.6544166 -2.15307,19.3905855 -4.78467,26.08053 -4.62098,11.747619 -6.21865,12.163516 -46.72897,12.163516 -40.51049,0 -42.10815,-0.416411 -46.72913,-12.163516 -2.63156,-6.6899445 -4.78462,-18.5826655 -4.78462,-26.42824 0,-22.467355 -14.11521,-15.281517 -31.49444,16.0335719 -8.31231,14.9775521 -18.97674,28.4580261 -23.69882,29.9565411 -4.72208,1.498515 -8.58562,6.667198 -8.58562,11.48586 0,4.818765 -10.06796,17.326963 -22.37329,27.796133 -21.16313,18.005287 -33.26981,39.891105 -43.18162,78.061725 -3.16796,12.19997 -2.47557,12.77355 15.41953,12.77355 10.30512,0 21.38582,2.56065 24.62381,5.69035 9.71393,9.38882 6.67824,40.53559 -6.37787,65.43847 -14.26508,27.20889 -15.117,36.63159 -4.62185,51.11433 14.6551,20.22284 -6.18692,27.57555 -29.00054,10.23093 l -12.86829,-9.78366 9.75368,-18.479 c 18.06474,-34.22499 16.61778,-35.45358 -41.75628,-35.45358 l -51.51133,0 0.17098,11.85478 c 0.0934,6.52014 3.32589,17.18946 7.18224,23.7096 10.24664,17.32501 9.01522,22.63823 -7.11555,30.70069 -15.47971,7.73708 -26.07401,9.13927 -31.25029,4.13623 z M 188.48054,46.98009 c 0,-24.197643 7.5583,-35.252612 24.10225,-35.252612 18.27295,0 25.50156,9.18877 25.83925,32.846208 0.26597,18.600123 8.82135,26.25382 16.29041,14.57295 1.66764,-2.607986 6.76542,-4.794427 11.32823,-4.858608 4.5628,-0.0647 26.83566,-18.202042 49.4951,-40.306282 l 41.19918,-40.189574 -140.54696,0 c -77.30078,0 -140.546951,1.195423 -140.546951,2.656507 0,6.706734 77.676741,76.121999 90.762211,81.109125 21.48804,8.189384 22.07728,7.906985 22.07728,-10.577714 z"
       id="path4177"
       inkscape:connector-curvature="0"
       sodipodi:nodetypes="sscccccccsscsscccccssssscscscssssssssscssssssscccsscscccsssssscssssssssssssscssccssccsssscscssss"
       inkscape:export-xdpi="90"
       inkscape:export-ydpi="90" />
  </g>
</svg>
